<svg width="26" height="26" viewBox="0 0 26 26" fill="none" xmlns="http://www.w3.org/2000/svg">
<path d="M18.8811 8.77195C19.2625 9.15342 19.2625 9.77178 18.8811 10.1531L12.3297 16.7046C11.9482 17.0859 11.3301 17.0859 10.9486 16.7046L7.82988 13.5857C7.44841 13.2044 7.44841 12.5861 7.82988 12.2048C8.21116 11.8233 8.82952 11.8233 9.2108 12.2048L11.639 14.633L17.4999 8.77195C17.8814 8.39067 18.4998 8.39067 18.8811 8.77195ZM25.8555 12.7383C25.8555 19.6477 20.2639 25.2383 13.3555 25.2383C6.4461 25.2383 0.855469 19.6467 0.855469 12.7383C0.855469 5.82891 6.44705 0.238281 13.3555 0.238281C20.2648 0.238281 25.8555 5.82986 25.8555 12.7383ZM23.9023 12.7383C23.9023 6.90847 19.1845 2.19141 13.3555 2.19141C7.52566 2.19141 2.80859 6.90923 2.80859 12.7383C2.80859 18.5681 7.52642 23.2852 13.3555 23.2852C19.1853 23.2852 23.9023 18.5673 23.9023 12.7383Z" fill="white"/>
</svg>
